<mxfile host="Electron" agent="Mozilla/5.0 (Macintosh; Intel Mac OS X 10_15_7) AppleWebKit/537.36 (KHTML, like Gecko) draw.io/24.7.8 Chrome/128.0.6613.36 Electron/32.0.1 Safari/537.36" version="24.7.8">
  <diagram name="Page-1" id="hVkgUOBoCH9ZgTFgDmyA">
    <mxGraphModel dx="282" dy="376" grid="1" gridSize="10" guides="1" tooltips="1" connect="1" arrows="1" fold="1" page="1" pageScale="1" pageWidth="827" pageHeight="1169" math="0" shadow="0">
      <root>
        <mxCell id="0" />
        <mxCell id="1" parent="0" />
        <mxCell id="nZ0V2V8cVu90xwvgSB8G-17" value="" style="rounded=0;whiteSpace=wrap;html=1;strokeColor=none;" parent="1" vertex="1">
          <mxGeometry x="310" y="510" width="480" height="220" as="geometry" />
        </mxCell>
        <mxCell id="JkUJiK0VQBEeBQaXtkLF-19" style="rounded=0;orthogonalLoop=1;jettySize=auto;html=1;endArrow=none;endFill=0;startArrow=classic;startFill=1;exitX=0;exitY=0.5;exitDx=0;exitDy=0;" parent="1" source="JkUJiK0VQBEeBQaXtkLF-9" edge="1">
          <mxGeometry relative="1" as="geometry">
            <mxPoint x="360" y="555" as="targetPoint" />
          </mxGeometry>
        </mxCell>
        <mxCell id="nZ0V2V8cVu90xwvgSB8G-1" value="9-15V" style="edgeLabel;html=1;align=center;verticalAlign=middle;resizable=0;points=[];" parent="JkUJiK0VQBEeBQaXtkLF-19" vertex="1" connectable="0">
          <mxGeometry x="0.3962" relative="1" as="geometry">
            <mxPoint x="-32" as="offset" />
          </mxGeometry>
        </mxCell>
        <mxCell id="JkUJiK0VQBEeBQaXtkLF-9" value="&lt;div&gt;3.3V&lt;div&gt;&lt;i&gt;&lt;font style=&quot;font-size: 10px;&quot;&gt;1A&lt;/font&gt;&lt;/i&gt;&lt;/div&gt;&lt;div&gt;&lt;i&gt;&lt;font style=&quot;font-size: 10px;&quot;&gt;Switching Regulator&lt;/font&gt;&lt;/i&gt;&lt;/div&gt;&lt;/div&gt;" style="rounded=0;whiteSpace=wrap;html=1;fillColor=#fff2cc;strokeColor=#d6b656;" parent="1" vertex="1">
          <mxGeometry x="400" y="525" width="100" height="60" as="geometry" />
        </mxCell>
        <mxCell id="nZ0V2V8cVu90xwvgSB8G-2" style="rounded=0;orthogonalLoop=1;jettySize=auto;html=1;endArrow=none;endFill=0;startArrow=classic;startFill=1;exitX=0;exitY=0.5;exitDx=0;exitDy=0;" parent="1" edge="1">
          <mxGeometry relative="1" as="geometry">
            <mxPoint x="500" y="554.6" as="targetPoint" />
            <mxPoint x="540" y="554.6" as="sourcePoint" />
          </mxGeometry>
        </mxCell>
        <mxCell id="nZ0V2V8cVu90xwvgSB8G-8" style="edgeStyle=orthogonalEdgeStyle;rounded=0;orthogonalLoop=1;jettySize=auto;html=1;entryX=0.5;entryY=0;entryDx=0;entryDy=0;" parent="1" source="nZ0V2V8cVu90xwvgSB8G-4" target="nZ0V2V8cVu90xwvgSB8G-5" edge="1">
          <mxGeometry relative="1" as="geometry">
            <Array as="points">
              <mxPoint x="570" y="630" />
              <mxPoint x="450" y="630" />
            </Array>
          </mxGeometry>
        </mxCell>
        <mxCell id="nZ0V2V8cVu90xwvgSB8G-12" value="EN" style="edgeLabel;html=1;align=center;verticalAlign=middle;resizable=0;points=[];" parent="nZ0V2V8cVu90xwvgSB8G-8" vertex="1" connectable="0">
          <mxGeometry x="0.1549" relative="1" as="geometry">
            <mxPoint as="offset" />
          </mxGeometry>
        </mxCell>
        <mxCell id="nZ0V2V8cVu90xwvgSB8G-9" style="edgeStyle=orthogonalEdgeStyle;rounded=0;orthogonalLoop=1;jettySize=auto;html=1;entryX=0.5;entryY=0;entryDx=0;entryDy=0;" parent="1" source="nZ0V2V8cVu90xwvgSB8G-4" target="nZ0V2V8cVu90xwvgSB8G-6" edge="1">
          <mxGeometry relative="1" as="geometry" />
        </mxCell>
        <mxCell id="nZ0V2V8cVu90xwvgSB8G-13" value="EN" style="edgeLabel;html=1;align=center;verticalAlign=middle;resizable=0;points=[];" parent="nZ0V2V8cVu90xwvgSB8G-9" vertex="1" connectable="0">
          <mxGeometry x="-0.0027" relative="1" as="geometry">
            <mxPoint as="offset" />
          </mxGeometry>
        </mxCell>
        <mxCell id="nZ0V2V8cVu90xwvgSB8G-10" style="edgeStyle=orthogonalEdgeStyle;rounded=0;orthogonalLoop=1;jettySize=auto;html=1;entryX=0.5;entryY=0;entryDx=0;entryDy=0;" parent="1" source="nZ0V2V8cVu90xwvgSB8G-4" target="nZ0V2V8cVu90xwvgSB8G-7" edge="1">
          <mxGeometry relative="1" as="geometry">
            <Array as="points">
              <mxPoint x="610" y="630" />
              <mxPoint x="730" y="630" />
            </Array>
          </mxGeometry>
        </mxCell>
        <mxCell id="nZ0V2V8cVu90xwvgSB8G-14" value="EN" style="edgeLabel;html=1;align=center;verticalAlign=middle;resizable=0;points=[];" parent="nZ0V2V8cVu90xwvgSB8G-10" vertex="1" connectable="0">
          <mxGeometry x="0.1877" y="2" relative="1" as="geometry">
            <mxPoint as="offset" />
          </mxGeometry>
        </mxCell>
        <mxCell id="nZ0V2V8cVu90xwvgSB8G-4" value="&lt;div&gt;LM3880&lt;/div&gt;&lt;div&gt;&lt;font style=&quot;font-size: 10px;&quot;&gt;&lt;i&gt;Power sequencer&lt;/i&gt;&lt;/font&gt;&lt;/div&gt;" style="rounded=0;whiteSpace=wrap;html=1;fillColor=#f8cecc;strokeColor=#b85450;" parent="1" vertex="1">
          <mxGeometry x="540" y="525" width="100" height="60" as="geometry" />
        </mxCell>
        <mxCell id="nZ0V2V8cVu90xwvgSB8G-5" value="&lt;div&gt;1.8V&lt;div&gt;&lt;i&gt;&lt;font style=&quot;font-size: 10px;&quot;&gt;1A&lt;/font&gt;&lt;/i&gt;&lt;/div&gt;&lt;div&gt;&lt;i&gt;&lt;font style=&quot;font-size: 10px;&quot;&gt;Switching Regulator&lt;/font&gt;&lt;/i&gt;&lt;/div&gt;&lt;/div&gt;" style="rounded=0;whiteSpace=wrap;html=1;fillColor=#fff2cc;strokeColor=#d6b656;" parent="1" vertex="1">
          <mxGeometry x="400" y="660" width="100" height="60" as="geometry" />
        </mxCell>
        <mxCell id="nZ0V2V8cVu90xwvgSB8G-6" value="&lt;div&gt;2.5V&lt;div&gt;&lt;i&gt;&lt;font style=&quot;font-size: 10px;&quot;&gt;1A&lt;/font&gt;&lt;/i&gt;&lt;/div&gt;&lt;div&gt;&lt;i&gt;&lt;font style=&quot;font-size: 10px;&quot;&gt;Switching Regulator&lt;/font&gt;&lt;/i&gt;&lt;/div&gt;&lt;/div&gt;" style="rounded=0;whiteSpace=wrap;html=1;fillColor=#fff2cc;strokeColor=#d6b656;" parent="1" vertex="1">
          <mxGeometry x="540" y="660" width="100" height="60" as="geometry" />
        </mxCell>
        <mxCell id="nZ0V2V8cVu90xwvgSB8G-7" value="&lt;div&gt;1.1V&lt;div&gt;&lt;i&gt;&lt;font style=&quot;font-size: 10px;&quot;&gt;4A&lt;/font&gt;&lt;/i&gt;&lt;/div&gt;&lt;div&gt;&lt;i&gt;&lt;font style=&quot;font-size: 10px;&quot;&gt;Switching Regulator&lt;/font&gt;&lt;/i&gt;&lt;/div&gt;&lt;/div&gt;" style="rounded=0;whiteSpace=wrap;html=1;fillColor=#fff2cc;strokeColor=#d6b656;" parent="1" vertex="1">
          <mxGeometry x="680" y="660" width="100" height="60" as="geometry" />
        </mxCell>
        <mxCell id="nZ0V2V8cVu90xwvgSB8G-19" value="" style="pointerEvents=1;verticalLabelPosition=bottom;shadow=0;dashed=0;align=center;html=1;verticalAlign=top;shape=mxgraph.electrical.capacitors.capacitor_1;rotation=90;" parent="1" vertex="1">
          <mxGeometry x="652" y="560" width="20" height="15" as="geometry" />
        </mxCell>
        <mxCell id="nZ0V2V8cVu90xwvgSB8G-20" style="edgeStyle=orthogonalEdgeStyle;rounded=0;orthogonalLoop=1;jettySize=auto;html=1;exitX=1;exitY=0.5;exitDx=0;exitDy=0;entryX=0;entryY=0.5;entryDx=0;entryDy=0;entryPerimeter=0;endArrow=none;endFill=0;" parent="1" source="nZ0V2V8cVu90xwvgSB8G-4" target="nZ0V2V8cVu90xwvgSB8G-19" edge="1">
          <mxGeometry relative="1" as="geometry" />
        </mxCell>
        <mxCell id="nZ0V2V8cVu90xwvgSB8G-21" value="" style="pointerEvents=1;verticalLabelPosition=bottom;shadow=0;dashed=0;align=center;html=1;verticalAlign=top;shape=mxgraph.electrical.signal_sources.signal_ground;" parent="1" vertex="1">
          <mxGeometry x="655" y="577" width="14" height="13" as="geometry" />
        </mxCell>
        <mxCell id="nZ0V2V8cVu90xwvgSB8G-22" value="C&lt;sub style=&quot;font-size: 7px;&quot;&gt;en&lt;/sub&gt;" style="text;html=1;align=center;verticalAlign=middle;whiteSpace=wrap;rounded=0;fontSize=7;" parent="1" vertex="1">
          <mxGeometry x="650" y="553" width="60" height="30" as="geometry" />
        </mxCell>
      </root>
    </mxGraphModel>
  </diagram>
</mxfile>
